<svg width="100" height="100" viewBox="0 0 100 100" fill="none" xmlns="http://www.w3.org/2000/svg">
<g clip-path="url(#clip0_1_24)">
<path d="M92 0C96.4183 0 100 3.58172 100 8V92C100 96.4183 96.4183 100 92 100H8C3.58172 100 0 96.4183 0 92V8C0 3.58172 3.58172 0 8 0H92ZM17.1113 48.4443C14.9022 48.4443 13.1114 50.2352 13.1113 52.4443V84.4443C13.1113 86.6535 14.9022 88.4443 17.1113 88.4443H25.7773C27.9865 88.4443 29.7773 86.6535 29.7773 84.4443V52.4443C29.7773 50.2352 27.9864 48.4443 25.7773 48.4443H17.1113ZM45.7773 11.7773C43.5686 11.7776 41.7776 13.5686 41.7773 15.7773V84.4443C41.7773 86.6533 43.5684 88.4441 45.7773 88.4443H54.4443C56.6535 88.4443 58.4443 86.6535 58.4443 84.4443V15.7773C58.4441 13.5684 56.6533 11.7773 54.4443 11.7773H45.7773ZM74.4443 30.667C72.2353 30.6671 70.4443 32.4579 70.4443 34.667V84.4443C70.4443 86.6534 72.2353 88.4443 74.4443 88.4443H83.1113C85.3204 88.4442 87.1113 86.6534 87.1113 84.4443V34.667C87.1113 32.4579 85.3204 30.6671 83.1113 30.667H74.4443Z" fill="#047857"/>
</g>
<defs>
<clipPath id="clip0_1_24">
<rect width="100" height="100" rx="18" fill="white"/>
</clipPath>
</defs>
</svg>
